<?xml version="1.0" encoding="UTF-8"?><svg xmlns="http://www.w3.org/2000/svg" viewBox="0 0 1920 1080"><defs><style>.cls-1{fill:#ffafb2;}.cls-1,.cls-2,.cls-3,.cls-4,.cls-5,.cls-6,.cls-7,.cls-8,.cls-9,.cls-10,.cls-11,.cls-12,.cls-13,.cls-14,.cls-15,.cls-16,.cls-17,.cls-18,.cls-19{stroke-width:0px;}.cls-2{fill:#24255b;}.cls-3{fill:#422110;}.cls-4{fill:#65b7e6;}.cls-5{fill:#c6ad94;}.cls-6{fill:#8c6339;}.cls-7{fill:#805020;}.cls-8{fill:#ca89e7;}.cls-9{fill:#633910;}.cls-10{fill:#026a67;}.cls-11{fill:#f9ea1f;}.cls-12{fill:#000;}.cls-13{fill:#ff000e;}.cls-14{fill:#ffc24d;}.cls-15{fill:#f9cc3d;}.cls-16{fill:#f7ad39;}.cls-17{fill:#ff5b35;}.cls-18{fill:#9c216b;}.cls-19{fill:#21b573;}</style></defs><g id="Quad_BROWN"><polygon class="cls-18" points="-231.45 1080 513.44 1080 746.22 662.53 1.33 662.53 -231.45 1080"/></g><g id="Quad_TAN"><polygon class="cls-1" points="101.01 1080 845.91 1080 1078.69 662.53 333.79 662.53 101.01 1080"/></g><g id="SUEDE"><rect class="cls-5" x="966.47" y="677.16" width="43.9" height="402.84"/></g><g id="TAN"><rect class="cls-6" x="899.03" y="677.16" width="43.9" height="402.84"/></g><g id="CHESTNUT"><rect class="cls-7" x="831.59" y="677.16" width="43.9" height="402.84"/></g><g id="BROWN"><rect class="cls-9" x="764.15" y="677.16" width="43.9" height="402.84"/></g><g id="COFFEE"><rect class="cls-3" x="696.71" y="677.16" width="43.9" height="402.84"/></g><g id="BLACK"><rect class="cls-12" x="629.27" y="677.16" width="43.9" height="402.84"/></g><g id="Step_Pink"><polygon class="cls-11" points="1052.79 479.34 1052.79 285.52 889.65 285.52 889.65 0 693.35 0 693.35 677.16 889.65 677.16 1052.79 677.16 1215.93 677.16 1215.93 479.34 1052.79 479.34"/></g><g id="Step_BROWN"><polygon class="cls-19" points="1052.41 287.8 1052.41 481.62 1215.55 481.62 1215.55 677.16 1411.85 677.16 1411.85 0 1215.55 0 1052.41 0 889.27 0 889.27 287.8 1052.41 287.8"/></g><g id="Lump_BLUE"><path class="cls-13" d="M-.35,0v634.53c0,196.28,157.08,355.39,350.85,355.39s350.85-159.11,350.85-355.39V0H-.35Z"/></g><g id="Circle_PINK"><circle class="cls-16" cx="341.5" cy="626.35" r="256.35"/></g><g id="Triangle_PINK"><polygon class="cls-8" points="1957.33 1080 1402.21 0 2512.45 0 1957.33 1080"/></g><g id="Triangle_BLUE"><polygon class="cls-4" points="1402.21 0 847.09 1080 1957.33 1080 1402.21 0"/></g><g id="OUR_SPACE_Block"><polygon class="cls-17" points="-231.45 1080 513.44 1080 746.22 662.53 1.33 662.53 -231.45 1080"/><polygon class="cls-18" points="101.01 1080 845.91 1080 1078.69 662.53 333.79 662.53 101.01 1080"/><rect class="cls-8" x="966.47" y="677.16" width="43.9" height="402.84"/><rect class="cls-8" x="899.03" y="677.16" width="43.9" height="402.84"/><rect class="cls-8" x="831.59" y="677.16" width="43.9" height="402.84"/><rect class="cls-8" x="764.15" y="677.16" width="43.9" height="402.84"/><rect class="cls-8" x="696.71" y="677.16" width="43.9" height="402.84"/><rect class="cls-8" x="629.27" y="677.16" width="43.9" height="402.84"/><polygon class="cls-10" points="1052.79 479.34 1052.79 285.52 889.65 285.52 889.65 0 693.35 0 693.35 677.16 889.65 677.16 1052.79 677.16 1215.93 677.16 1215.93 479.34 1052.79 479.34"/><polygon class="cls-19" points="1052.41 287.8 1052.41 481.62 1215.55 481.62 1215.55 677.16 1411.85 677.16 1411.85 0 1215.55 0 1052.41 0 889.27 0 889.27 287.8 1052.41 287.8"/><path class="cls-4" d="M-.35,0v634.53c0,196.28,157.08,355.39,350.85,355.39s350.85-159.11,350.85-355.39V0H-.35Z"/><circle class="cls-14" cx="341.5" cy="626.35" r="256.35"/><polygon class="cls-15" points="1957.33 1080 1402.21 0 2512.45 0 1957.33 1080"/><polygon class="cls-2" points="1402.21 0 847.09 1080 1957.33 1080 1402.21 0"/></g></svg>